<svg xmlns="http://www.w3.org/2000/svg" xmlns:xlink="http://www.w3.org/1999/xlink" width="50" zoomAndPan="magnify" viewBox="0 0 37.5 37.499999" height="50" preserveAspectRatio="xMidYMid meet" version="1.0"><defs><clipPath id="a5229c5158"><path d="M 13.253906 0.0742188 L 24.453125 0.0742188 L 24.453125 18.824219 L 13.253906 18.824219 Z M 13.253906 0.0742188 " clip-rule="nonzero"/></clipPath></defs><g clip-path="url(#a5229c5158)"><path fill="#ffffff" d="M 18.851562 7.601562 C 17.707031 7.601562 16.777344 6.6875 16.777344 5.554688 C 16.777344 4.429688 17.707031 3.515625 18.851562 3.515625 C 19.996094 3.515625 20.925781 4.429688 20.925781 5.554688 C 20.925781 6.683594 19.996094 7.601562 18.851562 7.601562 Z M 24.453125 5.601562 C 24.453125 2.554688 21.953125 0.0859375 18.863281 0.078125 L 18.863281 0.0742188 C 18.863281 0.0742188 18.859375 0.0742188 18.855469 0.0742188 C 18.851562 0.0742188 18.847656 0.0742188 18.84375 0.0742188 L 18.84375 0.078125 C 15.757812 0.0859375 13.257812 2.554688 13.257812 5.601562 C 13.257812 5.601562 13.199219 6.976562 13.894531 8.402344 C 14.414062 9.464844 15.074219 10.175781 15.75 11.140625 C 16.796875 12.632812 17.292969 13.414062 17.8125 14.855469 C 18.183594 15.878906 18.539062 17.089844 18.855469 18.824219 C 19.171875 17.085938 19.527344 15.878906 19.894531 14.855469 C 20.417969 13.414062 20.914062 12.632812 21.957031 11.140625 C 22.636719 10.175781 23.292969 9.464844 23.8125 8.402344 C 24.511719 6.976562 24.453125 5.601562 24.453125 5.601562 " fill-opacity="1" fill-rule="nonzero"/></g></svg>